<svg xmlns="http://www.w3.org/2000/svg" version="1.1" xmlns:xlink="http://www.w3.org/1999/xlink" xmlns:svgjs="http://svgjs.dev/svgjs" width="128" height="128" viewBox="0 0 128 128"><g transform="matrix(0.8046875,0,0,0.8046875,12.333870967741937,12.333870967741937)"><svg viewBox="0 0 155 155" data-background-color="#ffffff" preserveAspectRatio="xMidYMid meet" height="128" width="128" xmlns="http://www.w3.org/2000/svg" xmlns:xlink="http://www.w3.org/1999/xlink"><g id="tight-bounds" transform="matrix(1,0,0,1,0.25,0.25)"><svg viewBox="0 0 154.5 154.5" height="154.5" width="154.5"><g><svg></svg></g><g><svg viewBox="0 0 154.5 154.5" height="154.5" width="154.5"><g transform="matrix(1,0,0,1,57.16114692073171,47.746371)"><svg viewBox="0 0 40.17770615853658 59.00725799999999" height="59.00725799999999" width="40.17770615853658"><g><svg viewBox="0 0 40.17770615853658 59.00725799999999" height="59.00725799999999" width="40.17770615853658"><g><svg viewBox="0 0 40.17770615853658 59.00725799999999" height="59.00725799999999" width="40.17770615853658"><g id="textblocktransform"><svg viewBox="0 0 40.17770615853658 59.00725799999999" height="59.00725799999999" width="40.17770615853658" id="textblock"><g><svg viewBox="0 0 40.17770615853658 59.00725799999999" height="59.00725799999999" width="40.17770615853658"><g transform="matrix(1,0,0,1,0,0)"><svg width="40.17770615853658" viewBox="3.9 -24.15 16.75 24.599999999999998" height="59.00725799999999" data-palette-color="#000000"><path d="M3.9-1.15L3.9-1.15 4.55-3.75Q9.5-2.1 12.2-2.1 14.9-2.1 16.38-3.28 17.85-4.45 17.85-6.4 17.85-8.35 16.68-9.28 15.5-10.2 11.8-11.05 8.1-11.9 6.25-13.5L6.25-13.5Q4.4-15 4.4-18 4.4-21 6.68-22.58 8.95-24.15 12.55-24.15 16.15-24.15 20.35-22.55L20.35-22.55 19.65-20.2Q15.4-21.6 12.8-21.6 10.2-21.6 8.7-20.7L8.7-20.7Q7.2-19.7 7.2-18 7.2-16.3 8.53-15.35 9.85-14.4 13.65-13.45 17.45-12.5 19.05-11.03 20.65-9.55 20.65-6.4 20.65-3.25 18.5-1.4L18.5-1.4Q16.4 0.45 12.5 0.45 8.6 0.45 3.9-1.15Z" opacity="1" transform="matrix(1,0,0,1,0,0)" fill="#000000" class="wordmark-text-0" data-fill-palette-color="primary" id="text-0"></path></svg></g></svg></g></svg></g></svg></g></svg></g></svg></g><g><path d="M49.542 33.816A20.089 20.089 0 0 1 104.958 33.816L99.637 33.816A14.768 14.768 0 0 0 54.863 33.816L49.542 33.816M49.542 120.684A20.089 20.089 0 0 0 104.958 120.684L99.637 120.684A14.768 14.768 0 0 1 54.863 120.684L49.542 120.684" fill="#000000" stroke="transparent" data-fill-palette-color="tertiary"></path></g></svg></g><defs></defs></svg><rect width="154.5" height="154.5" fill="none" stroke="none" visibility="hidden"></rect></g></svg></g></svg>